<mxfile host="app.diagrams.net" agent="Mozilla/5.0 (Windows NT 10.0; Win64; x64) AppleWebKit/537.36 (KHTML, like Gecko) Chrome/137.0.0.0 Safari/537.36" version="28.1.0">
  <diagram name="PÃ¡gina-1" id="-XuOlwOiezLDYJ_MlXQ6">
    <mxGraphModel dx="1042" dy="562" grid="1" gridSize="10" guides="1" tooltips="1" connect="1" arrows="1" fold="1" page="1" pageScale="1" pageWidth="827" pageHeight="1169" math="0" shadow="0">
      <root>
        <mxCell id="0" />
        <mxCell id="1" parent="0" />
        <mxCell id="COXsY7jCaA_HEgZKh-ox-14" style="edgeStyle=orthogonalEdgeStyle;rounded=0;orthogonalLoop=1;jettySize=auto;html=1;exitX=0.25;exitY=1;exitDx=0;exitDy=0;entryX=0;entryY=0.5;entryDx=0;entryDy=0;endArrow=oval;endFill=1;" edge="1" parent="1" source="COXsY7jCaA_HEgZKh-ox-1" target="COXsY7jCaA_HEgZKh-ox-11">
          <mxGeometry relative="1" as="geometry" />
        </mxCell>
        <mxCell id="COXsY7jCaA_HEgZKh-ox-16" style="edgeStyle=orthogonalEdgeStyle;rounded=0;orthogonalLoop=1;jettySize=auto;html=1;exitX=0.25;exitY=1;exitDx=0;exitDy=0;entryX=0;entryY=0.5;entryDx=0;entryDy=0;endArrow=oval;endFill=0;" edge="1" parent="1" source="COXsY7jCaA_HEgZKh-ox-1" target="COXsY7jCaA_HEgZKh-ox-15">
          <mxGeometry relative="1" as="geometry" />
        </mxCell>
        <mxCell id="COXsY7jCaA_HEgZKh-ox-38" style="edgeStyle=orthogonalEdgeStyle;rounded=0;orthogonalLoop=1;jettySize=auto;html=1;exitX=1;exitY=0.5;exitDx=0;exitDy=0;entryX=0;entryY=0.5;entryDx=0;entryDy=0;endArrow=none;endFill=0;" edge="1" parent="1" source="COXsY7jCaA_HEgZKh-ox-1" target="COXsY7jCaA_HEgZKh-ox-33">
          <mxGeometry relative="1" as="geometry" />
        </mxCell>
        <mxCell id="COXsY7jCaA_HEgZKh-ox-1" value="Leitor" style="rounded=1;whiteSpace=wrap;html=1;" vertex="1" parent="1">
          <mxGeometry x="40" y="150" width="120" height="60" as="geometry" />
        </mxCell>
        <mxCell id="COXsY7jCaA_HEgZKh-ox-6" style="edgeStyle=orthogonalEdgeStyle;rounded=0;orthogonalLoop=1;jettySize=auto;html=1;exitX=0.25;exitY=1;exitDx=0;exitDy=0;entryX=0;entryY=0.5;entryDx=0;entryDy=0;endArrow=oval;endFill=1;" edge="1" parent="1" source="COXsY7jCaA_HEgZKh-ox-2" target="COXsY7jCaA_HEgZKh-ox-5">
          <mxGeometry relative="1" as="geometry" />
        </mxCell>
        <mxCell id="COXsY7jCaA_HEgZKh-ox-10" style="edgeStyle=orthogonalEdgeStyle;rounded=0;orthogonalLoop=1;jettySize=auto;html=1;exitX=0.25;exitY=1;exitDx=0;exitDy=0;entryX=0;entryY=0.5;entryDx=0;entryDy=0;endArrow=oval;endFill=0;" edge="1" parent="1" source="COXsY7jCaA_HEgZKh-ox-2" target="COXsY7jCaA_HEgZKh-ox-7">
          <mxGeometry relative="1" as="geometry" />
        </mxCell>
        <mxCell id="COXsY7jCaA_HEgZKh-ox-40" style="edgeStyle=orthogonalEdgeStyle;rounded=0;orthogonalLoop=1;jettySize=auto;html=1;exitX=1;exitY=0.5;exitDx=0;exitDy=0;entryX=0;entryY=0.5;entryDx=0;entryDy=0;endArrow=none;endFill=0;" edge="1" parent="1" source="COXsY7jCaA_HEgZKh-ox-2" target="COXsY7jCaA_HEgZKh-ox-36">
          <mxGeometry relative="1" as="geometry" />
        </mxCell>
        <mxCell id="COXsY7jCaA_HEgZKh-ox-2" value="Emprestimo" style="rounded=1;whiteSpace=wrap;html=1;" vertex="1" parent="1">
          <mxGeometry x="240" y="150" width="120" height="60" as="geometry" />
        </mxCell>
        <mxCell id="COXsY7jCaA_HEgZKh-ox-21" style="edgeStyle=orthogonalEdgeStyle;rounded=0;orthogonalLoop=1;jettySize=auto;html=1;exitX=0.25;exitY=1;exitDx=0;exitDy=0;entryX=0;entryY=0.5;entryDx=0;entryDy=0;endArrow=oval;endFill=1;" edge="1" parent="1" source="COXsY7jCaA_HEgZKh-ox-3" target="COXsY7jCaA_HEgZKh-ox-17">
          <mxGeometry relative="1" as="geometry" />
        </mxCell>
        <mxCell id="COXsY7jCaA_HEgZKh-ox-22" style="edgeStyle=orthogonalEdgeStyle;rounded=0;orthogonalLoop=1;jettySize=auto;html=1;exitX=0.25;exitY=1;exitDx=0;exitDy=0;entryX=0;entryY=0.5;entryDx=0;entryDy=0;endArrow=oval;endFill=0;" edge="1" parent="1" source="COXsY7jCaA_HEgZKh-ox-3" target="COXsY7jCaA_HEgZKh-ox-18">
          <mxGeometry relative="1" as="geometry" />
        </mxCell>
        <mxCell id="COXsY7jCaA_HEgZKh-ox-23" style="edgeStyle=orthogonalEdgeStyle;rounded=0;orthogonalLoop=1;jettySize=auto;html=1;exitX=0.25;exitY=1;exitDx=0;exitDy=0;entryX=0;entryY=0.5;entryDx=0;entryDy=0;endArrow=oval;endFill=0;" edge="1" parent="1" source="COXsY7jCaA_HEgZKh-ox-3" target="COXsY7jCaA_HEgZKh-ox-19">
          <mxGeometry relative="1" as="geometry" />
        </mxCell>
        <mxCell id="COXsY7jCaA_HEgZKh-ox-24" style="edgeStyle=orthogonalEdgeStyle;rounded=0;orthogonalLoop=1;jettySize=auto;html=1;exitX=0.25;exitY=1;exitDx=0;exitDy=0;entryX=0;entryY=0.5;entryDx=0;entryDy=0;endArrow=oval;endFill=0;" edge="1" parent="1" source="COXsY7jCaA_HEgZKh-ox-3" target="COXsY7jCaA_HEgZKh-ox-20">
          <mxGeometry relative="1" as="geometry" />
        </mxCell>
        <mxCell id="COXsY7jCaA_HEgZKh-ox-3" value="Livro" style="rounded=1;whiteSpace=wrap;html=1;" vertex="1" parent="1">
          <mxGeometry x="440" y="150" width="120" height="60" as="geometry" />
        </mxCell>
        <mxCell id="COXsY7jCaA_HEgZKh-ox-30" style="edgeStyle=orthogonalEdgeStyle;rounded=0;orthogonalLoop=1;jettySize=auto;html=1;exitX=0.25;exitY=1;exitDx=0;exitDy=0;entryX=0;entryY=0.5;entryDx=0;entryDy=0;endArrow=oval;endFill=1;" edge="1" parent="1" source="COXsY7jCaA_HEgZKh-ox-4" target="COXsY7jCaA_HEgZKh-ox-25">
          <mxGeometry relative="1" as="geometry" />
        </mxCell>
        <mxCell id="COXsY7jCaA_HEgZKh-ox-32" style="edgeStyle=orthogonalEdgeStyle;rounded=0;orthogonalLoop=1;jettySize=auto;html=1;exitX=0.25;exitY=1;exitDx=0;exitDy=0;entryX=0;entryY=0.5;entryDx=0;entryDy=0;endArrow=oval;endFill=0;" edge="1" parent="1" source="COXsY7jCaA_HEgZKh-ox-4" target="COXsY7jCaA_HEgZKh-ox-31">
          <mxGeometry relative="1" as="geometry" />
        </mxCell>
        <mxCell id="COXsY7jCaA_HEgZKh-ox-45" style="edgeStyle=orthogonalEdgeStyle;rounded=0;orthogonalLoop=1;jettySize=auto;html=1;exitX=0.25;exitY=1;exitDx=0;exitDy=0;entryX=0;entryY=0.5;entryDx=0;entryDy=0;endArrow=oval;endFill=0;" edge="1" parent="1" source="COXsY7jCaA_HEgZKh-ox-4" target="COXsY7jCaA_HEgZKh-ox-44">
          <mxGeometry relative="1" as="geometry" />
        </mxCell>
        <mxCell id="COXsY7jCaA_HEgZKh-ox-4" value="Autor" style="rounded=1;whiteSpace=wrap;html=1;" vertex="1" parent="1">
          <mxGeometry x="660" y="150" width="120" height="60" as="geometry" />
        </mxCell>
        <mxCell id="COXsY7jCaA_HEgZKh-ox-5" value="Id_emprst" style="text;html=1;align=center;verticalAlign=middle;whiteSpace=wrap;rounded=0;" vertex="1" parent="1">
          <mxGeometry x="300" y="230" width="70" height="30" as="geometry" />
        </mxCell>
        <mxCell id="COXsY7jCaA_HEgZKh-ox-7" value="dado" style="text;html=1;align=center;verticalAlign=middle;whiteSpace=wrap;rounded=0;" vertex="1" parent="1">
          <mxGeometry x="300" y="250" width="60" height="30" as="geometry" />
        </mxCell>
        <mxCell id="COXsY7jCaA_HEgZKh-ox-8" style="edgeStyle=orthogonalEdgeStyle;rounded=0;orthogonalLoop=1;jettySize=auto;html=1;exitX=0.5;exitY=1;exitDx=0;exitDy=0;" edge="1" parent="1" source="COXsY7jCaA_HEgZKh-ox-7" target="COXsY7jCaA_HEgZKh-ox-7">
          <mxGeometry relative="1" as="geometry" />
        </mxCell>
        <mxCell id="COXsY7jCaA_HEgZKh-ox-11" value="id" style="text;html=1;align=center;verticalAlign=middle;whiteSpace=wrap;rounded=0;" vertex="1" parent="1">
          <mxGeometry x="90" y="235" width="50" height="20" as="geometry" />
        </mxCell>
        <mxCell id="COXsY7jCaA_HEgZKh-ox-15" value="nome" style="text;html=1;align=center;verticalAlign=middle;whiteSpace=wrap;rounded=0;" vertex="1" parent="1">
          <mxGeometry x="92.5" y="260" width="45" height="20" as="geometry" />
        </mxCell>
        <mxCell id="COXsY7jCaA_HEgZKh-ox-17" value="id" style="text;html=1;align=center;verticalAlign=middle;whiteSpace=wrap;rounded=0;" vertex="1" parent="1">
          <mxGeometry x="510" y="235" width="40" height="20" as="geometry" />
        </mxCell>
        <mxCell id="COXsY7jCaA_HEgZKh-ox-18" value="nome" style="text;html=1;align=center;verticalAlign=middle;whiteSpace=wrap;rounded=0;" vertex="1" parent="1">
          <mxGeometry x="510" y="255" width="50" height="20" as="geometry" />
        </mxCell>
        <mxCell id="COXsY7jCaA_HEgZKh-ox-19" value="genero" style="text;html=1;align=center;verticalAlign=middle;whiteSpace=wrap;rounded=0;" vertex="1" parent="1">
          <mxGeometry x="510" y="275" width="50" height="20" as="geometry" />
        </mxCell>
        <mxCell id="COXsY7jCaA_HEgZKh-ox-20" value="data" style="text;html=1;align=center;verticalAlign=middle;whiteSpace=wrap;rounded=0;" vertex="1" parent="1">
          <mxGeometry x="510" y="295" width="40" height="20" as="geometry" />
        </mxCell>
        <mxCell id="COXsY7jCaA_HEgZKh-ox-25" value="id" style="text;html=1;align=center;verticalAlign=middle;whiteSpace=wrap;rounded=0;" vertex="1" parent="1">
          <mxGeometry x="730" y="235" width="40" height="20" as="geometry" />
        </mxCell>
        <mxCell id="COXsY7jCaA_HEgZKh-ox-28" style="edgeStyle=orthogonalEdgeStyle;rounded=0;orthogonalLoop=1;jettySize=auto;html=1;exitX=0.5;exitY=1;exitDx=0;exitDy=0;" edge="1" parent="1" source="COXsY7jCaA_HEgZKh-ox-25" target="COXsY7jCaA_HEgZKh-ox-25">
          <mxGeometry relative="1" as="geometry" />
        </mxCell>
        <mxCell id="COXsY7jCaA_HEgZKh-ox-31" value="nome" style="text;html=1;align=center;verticalAlign=middle;whiteSpace=wrap;rounded=0;" vertex="1" parent="1">
          <mxGeometry x="730" y="260" width="50" height="20" as="geometry" />
        </mxCell>
        <mxCell id="COXsY7jCaA_HEgZKh-ox-39" style="edgeStyle=orthogonalEdgeStyle;rounded=0;orthogonalLoop=1;jettySize=auto;html=1;exitX=1;exitY=0.5;exitDx=0;exitDy=0;entryX=0;entryY=0.5;entryDx=0;entryDy=0;endArrow=none;endFill=0;" edge="1" parent="1" source="COXsY7jCaA_HEgZKh-ox-33" target="COXsY7jCaA_HEgZKh-ox-2">
          <mxGeometry relative="1" as="geometry" />
        </mxCell>
        <mxCell id="COXsY7jCaA_HEgZKh-ox-33" value="Possui" style="rhombus;whiteSpace=wrap;html=1;fontStyle=1" vertex="1" parent="1">
          <mxGeometry x="180" y="162.5" width="50" height="35" as="geometry" />
        </mxCell>
        <mxCell id="COXsY7jCaA_HEgZKh-ox-41" style="edgeStyle=orthogonalEdgeStyle;rounded=0;orthogonalLoop=1;jettySize=auto;html=1;exitX=1;exitY=0.5;exitDx=0;exitDy=0;entryX=0;entryY=0.5;entryDx=0;entryDy=0;endArrow=none;endFill=0;" edge="1" parent="1" source="COXsY7jCaA_HEgZKh-ox-36" target="COXsY7jCaA_HEgZKh-ox-3">
          <mxGeometry relative="1" as="geometry" />
        </mxCell>
        <mxCell id="COXsY7jCaA_HEgZKh-ox-36" value="Contem" style="rhombus;whiteSpace=wrap;html=1;fontStyle=1" vertex="1" parent="1">
          <mxGeometry x="370" y="162.5" width="50" height="35" as="geometry" />
        </mxCell>
        <mxCell id="COXsY7jCaA_HEgZKh-ox-42" style="edgeStyle=orthogonalEdgeStyle;rounded=0;orthogonalLoop=1;jettySize=auto;html=1;exitX=0;exitY=0.5;exitDx=0;exitDy=0;entryX=1;entryY=0.5;entryDx=0;entryDy=0;endArrow=none;endFill=0;" edge="1" parent="1" source="COXsY7jCaA_HEgZKh-ox-37" target="COXsY7jCaA_HEgZKh-ox-3">
          <mxGeometry relative="1" as="geometry" />
        </mxCell>
        <mxCell id="COXsY7jCaA_HEgZKh-ox-43" style="edgeStyle=orthogonalEdgeStyle;rounded=0;orthogonalLoop=1;jettySize=auto;html=1;exitX=1;exitY=0.5;exitDx=0;exitDy=0;entryX=0;entryY=0.5;entryDx=0;entryDy=0;endArrow=none;endFill=0;" edge="1" parent="1" source="COXsY7jCaA_HEgZKh-ox-37" target="COXsY7jCaA_HEgZKh-ox-4">
          <mxGeometry relative="1" as="geometry" />
        </mxCell>
        <mxCell id="COXsY7jCaA_HEgZKh-ox-37" value="Faz" style="rhombus;whiteSpace=wrap;html=1;fontStyle=1" vertex="1" parent="1">
          <mxGeometry x="590" y="162.5" width="50" height="35" as="geometry" />
        </mxCell>
        <mxCell id="COXsY7jCaA_HEgZKh-ox-44" value="CPF" style="text;html=1;align=center;verticalAlign=middle;whiteSpace=wrap;rounded=0;" vertex="1" parent="1">
          <mxGeometry x="730" y="290" width="50" height="20" as="geometry" />
        </mxCell>
      </root>
    </mxGraphModel>
  </diagram>
</mxfile>
